<?xml version="1.0" encoding="UTF-8"?>
<svg version="1.1" xmlns="http://www.w3.org/2000/svg" width="649" height="385">
<path d="M0 0 C1.0625 1.9375 1.0625 1.9375 2 4 C2.99 4.495 2.99 4.495 4 5 C6.52845528 6.26422764 6.76422764 7.52845528 8 10 C8.60328125 10.2784375 9.2065625 10.556875 9.828125 10.84375 C12.56099931 12.2986615 13.88380966 14.04364691 15.75 16.5 C16.36359375 17.2940625 16.9771875 18.088125 17.609375 18.90625 C19 21 19 21 19 23 C15.56291207 22.40555907 13.75331426 21.20565816 11.1875 18.875 C10.14722656 17.93914062 10.14722656 17.93914062 9.0859375 16.984375 C6.52678266 14.5498232 4.10614261 12.00332408 1.73828125 9.3828125 C-0.53049769 7.57798611 -2.11257165 7.15220553 -5 7 C-6.95260198 8.00301777 -6.95260198 8.00301777 -8.625 9.75 C-9.30433594 10.39195313 -9.98367188 11.03390625 -10.68359375 11.6953125 C-11.44800781 12.45585938 -12.21242188 13.21640625 -13 14 C-14.37865234 15.35738281 -14.37865234 15.35738281 -15.78515625 16.7421875 C-18.54419674 19.47440527 -21.272742 22.23605243 -24 25 C-24.86625 25.8559375 -25.7325 26.711875 -26.625 27.59375 C-28.63002081 29.62515266 -30.48359468 31.68757478 -32.3125 33.875 C-35.34949443 37.38838572 -38.61757798 40.40662695 -42.15234375 43.41015625 C-44.56439486 45.48564209 -46.78090911 47.72093368 -49 50 C-49.845625 50.825 -50.69125 51.65 -51.5625 52.5 C-53.99456247 54.89390968 -53.99456247 54.89390968 -55.8125 57.375 C-58.30200893 60.36241071 -61.07797512 62.70762412 -64.03515625 65.21875 C-65.84806965 66.86226593 -67.35543785 68.52564733 -68.875 70.4375 C-69.926875 71.7059375 -69.926875 71.7059375 -71 73 C-71.66 73 -72.32 73 -73 73 C-73.66 74.32 -74.32 75.64 -75 77 C-75.66 77 -76.32 77 -77 77 C-77.25974609 77.58426758 -77.51949219 78.16853516 -77.78710938 78.77050781 C-79.084656 81.15561164 -80.49341122 82.75190637 -82.40625 84.671875 C-83.06753906 85.33574219 -83.72882813 85.99960938 -84.41015625 86.68359375 C-85.09980469 87.36550781 -85.78945313 88.04742187 -86.5 88.75 C-87.18964844 89.44738281 -87.87929688 90.14476562 -88.58984375 90.86328125 C-89.25113281 91.52199219 -89.91242188 92.18070312 -90.59375 92.859375 C-91.19896484 93.46233398 -91.80417969 94.06529297 -92.42773438 94.68652344 C-94 96 -94 96 -96 96 C-96 96.66 -96 97.32 -96 98 C-96.66 98 -97.32 98 -98 98 C-98 98.66 -98 99.32 -98 100 C-99.4609375 101.40234375 -99.4609375 101.40234375 -101.375 102.9375 C-103.83901524 104.91986617 -105.20466437 106.30699655 -107 109 C-107.66 109 -108.32 109 -109 109 C-109.39832031 109.87398437 -109.39832031 109.87398437 -109.8046875 110.765625 C-111.03302996 113.06174228 -112.40314939 114.80356018 -114.125 116.75 C-114.66382813 117.36359375 -115.20265625 117.9771875 -115.7578125 118.609375 C-116.37269531 119.29773438 -116.37269531 119.29773438 -117 120 C-116.566875 120.40992188 -116.13375 120.81984375 -115.6875 121.2421875 C-115.130625 121.78101563 -114.57375 122.31984375 -114 122.875 C-113.443125 123.40867187 -112.88625 123.94234375 -112.3125 124.4921875 C-111 126 -111 126 -111 128 C-110.01 128.33 -109.02 128.66 -108 129 C-108 129.66 -108 130.32 -108 131 C-107.13375 131.3403125 -107.13375 131.3403125 -106.25 131.6875 C-103.40408619 133.34761639 -102.00158079 135.39187957 -100 138 C-98.34833393 139.68153345 -96.67816844 141.34491503 -95 143 C-93.80123788 144.19707062 -92.60338223 145.39504941 -91.40625 146.59375 C-90.76816406 147.23183594 -90.13007813 147.86992187 -89.47265625 148.52734375 C-87.51302083 150.48697917 -85.55338542 152.44661458 -83.59375 154.40625 C-82.97838379 155.02089111 -82.36301758 155.63553223 -81.72900391 156.26879883 C-80.65017495 157.34899879 -79.57388027 158.43174301 -78.50146484 159.51831055 C-76.61059102 161.43118752 -74.76765496 163.17731595 -72.625 164.8125 C-70.46721268 166.6106561 -68.891113 168.23221978 -67.10375977 170.35839844 C-61.92608372 176.33152116 -56.29934829 181.86503881 -50.71484375 187.453125 C-49.52845776 188.64273102 -48.34214415 189.83240924 -47.15589905 191.02215576 C-44.68244052 193.50156752 -42.20695924 195.97893915 -39.73022461 198.45507812 C-36.56570718 201.61949355 -33.40815079 204.79075882 -30.25228024 207.96379471 C-27.80982458 210.41738895 -25.36281703 212.86640442 -22.91452217 215.31417084 C-21.74837942 216.4814887 -20.58384638 217.65041707 -19.42100334 218.82102203 C-17.79443746 220.45743593 -16.16159637 222.08733302 -14.52709961 223.71582031 C-13.13979897 225.10525848 -13.13979897 225.10525848 -11.72447205 226.52276611 C-8.95230262 229.04336898 -6.23586843 231.11149112 -3 233 C-0.20438833 232.87754191 -0.20438833 232.87754191 2 232 C1.5206753 236.31392226 0.2542015 238.16569547 -3 241 C-6.02977429 239.64768813 -8.08472613 238.14519457 -10.390625 235.76953125 C-11.01437012 235.1343457 -11.63811523 234.49916016 -12.28076172 233.84472656 C-12.93061035 233.1740918 -13.58045898 232.50345703 -14.25 231.8125 C-18.89166736 227.07995156 -23.5086773 222.46054555 -28.6796875 218.296875 C-30 217 -30 217 -31 214 C-31.5775 213.71125 -32.155 213.4225 -32.75 213.125 C-36.43913922 211.28043039 -39.25675893 208.5302022 -41.0625 204.8125 C-42.29757189 202.42469435 -43.60375377 202.16389103 -46 201 C-47.70993434 199.3777546 -49.37347684 197.70586575 -51 196 C-51.825 195.175 -52.65 194.35 -53.5 193.5 C-56 191 -58.5 188.5 -61 186 C-61.598125 185.443125 -62.19625 184.88625 -62.8125 184.3125 C-64 183 -64 183 -64 181 C-64.556875 180.773125 -65.11375 180.54625 -65.6875 180.3125 C-68.65855185 178.62622733 -70.64522125 176.469646 -73 174 C-73.825 173.175 -74.65 172.35 -75.5 171.5 C-76.325 170.675 -77.15 169.85 -78 169 C-78.845625 168.175 -79.69125 167.35 -80.5625 166.5 C-83 164 -83 164 -84.8125 161.625 C-87.31243329 158.62508005 -90.0858864 156.22860274 -93.046875 153.6953125 C-95.48745323 151.5768906 -97.74607716 149.31483967 -100 147 C-100.825 146.175 -101.65 145.35 -102.5 144.5 C-103.325 143.675 -104.15 142.85 -105 142 C-105.845625 141.175 -106.69125 140.35 -107.5625 139.5 C-109.89448943 137.10821597 -111.91515471 134.60605661 -114 132 C-116.4761159 129.3969038 -118.84229152 127.11469708 -121.75 125 C-124 123 -124 123 -125.125 120.5625 C-125 118 -125 118 -122.875 115.5 C-121.92625 114.675 -120.9775 113.85 -120 113 C-119.175 112.175 -118.35 111.35 -117.5 110.5 C-115.82288432 108.82288432 -114.13519144 107.15628433 -112.4375 105.5 C-110.00543753 103.10609032 -110.00543753 103.10609032 -108.1875 100.625 C-105.68840675 97.6260881 -102.91464368 95.23040886 -99.95703125 92.6953125 C-96.73074534 89.90048599 -93.77855097 87.02017024 -91.1875 83.625 C-88.68756671 80.62508005 -85.9141136 78.22860274 -82.953125 75.6953125 C-80.51254677 73.5768906 -78.25392284 71.31483967 -76 69 C-75.154375 68.175 -74.30875 67.35 -73.4375 66.5 C-71.00543753 64.10609032 -71.00543753 64.10609032 -69.1875 61.625 C-66.68756671 58.62508005 -63.9141136 56.22860274 -60.953125 53.6953125 C-58.51254677 51.5768906 -56.25392284 49.31483967 -54 47 C-53.154375 46.175 -52.30875 45.35 -51.4375 44.5 C-49.00543753 42.10609032 -49.00543753 42.10609032 -47.1875 39.625 C-44.68528478 36.62234173 -41.9082347 34.2240238 -38.9453125 31.6875 C-36.50585763 29.57134638 -34.25405947 27.31185587 -32 25 C-31.46761719 24.47792969 -30.93523437 23.95585937 -30.38671875 23.41796875 C-27.27795603 20.36435038 -24.32508334 17.25665621 -21.5 13.9375 C-18.33519491 10.27261284 -14.9890717 6.77866736 -11 4 C-10.34 4 -9.68 4 -9 4 C-8.71125 3.360625 -8.4225 2.72125 -8.125 2.0625 C-6.06092028 -1.72164616 -3.7774462 -1.22767001 0 0 Z " fill="#E7E7E7" transform="translate(407,111)"/>
<path d="M0 0 C5.01739829 2.57975163 8.36212509 6.62232306 11.96484375 10.8359375 C14.75589419 14.02059761 17.77117051 16.95861039 20.79296875 19.921875 C21.59734375 20.746875 22.40171875 21.571875 23.23046875 22.421875 C25.89333223 25.0197906 28.67441407 27.40918419 31.53515625 29.78515625 C33.42697098 31.57550687 35.04502412 33.36184404 36.72363281 35.34326172 C41.10798122 40.37827841 45.83247441 45.05937461 50.57711411 49.75061989 C52.19381407 51.34969719 53.80674558 52.95249183 55.41873169 54.55632019 C59.99620657 59.10952469 64.57952074 63.65681936 69.16699219 68.19995117 C71.98680032 70.99301604 74.80174866 73.79090255 77.61374283 76.59183311 C78.68279087 77.65467497 79.75373246 78.71561575 80.82659531 79.7746067 C82.31978469 81.2486287 83.8067567 82.72866401 85.29248047 84.21020508 C86.13962616 85.04989334 86.98677185 85.8895816 87.85958862 86.75471497 C89.79296875 88.921875 89.79296875 88.921875 90.79296875 91.921875 C88.05925968 97.06893661 84.37900468 100.23728275 79.79296875 103.734375 C79.17679688 104.22357422 78.560625 104.71277344 77.92578125 105.21679688 C74.87552196 107.58303879 72.63606706 109.15733706 68.79296875 109.921875 C69.12296875 108.931875 69.45296875 107.941875 69.79296875 106.921875 C70.45296875 106.921875 71.11296875 106.921875 71.79296875 106.921875 C72.01984375 106.385625 72.24671875 105.849375 72.48046875 105.296875 C74.84956079 101.00994655 77.72239056 97.6355938 81.79296875 94.921875 C82.76767059 93.04390598 82.76767059 93.04390598 82.79296875 90.921875 C81.80224844 89.09396004 81.80224844 89.09396004 80.10546875 87.421875 C79.4609375 86.73222656 78.81640625 86.04257813 78.15234375 85.33203125 C76.98445313 84.13900391 76.98445313 84.13900391 75.79296875 82.921875 C75.33599609 82.45120605 74.87902344 81.98053711 74.40820312 81.49560547 C68.95356664 75.89105679 63.41728821 70.45034904 57.46484375 65.37109375 C55.11900913 63.33767169 52.95783357 61.14524968 50.79296875 58.921875 C49.94734375 58.096875 49.10171875 57.271875 48.23046875 56.421875 C45.79296875 53.921875 45.79296875 53.921875 43.98046875 51.546875 C41.48053546 48.54695505 38.70708235 46.15047774 35.74609375 43.6171875 C33.30551552 41.4987656 31.04689159 39.23671467 28.79296875 36.921875 C27.94734375 36.096875 27.10171875 35.271875 26.23046875 34.421875 C23.79296875 31.921875 23.79296875 31.921875 21.98046875 29.546875 C19.48053546 26.54695505 16.70708235 24.15047774 13.74609375 21.6171875 C10.3430434 18.6633398 7.26292506 15.43768071 4.23046875 12.109375 C1.84266442 9.47660184 1.84266442 9.47660184 -2.20703125 9.921875 C-2.86703125 9.921875 -3.52703125 9.921875 -4.20703125 9.921875 C-4.60921875 10.8809375 -4.60921875 10.8809375 -5.01953125 11.859375 C-6.20703125 13.921875 -6.20703125 13.921875 -9.20703125 14.921875 C-9.49578125 15.499375 -9.78453125 16.076875 -10.08203125 16.671875 C-11.60086193 19.70953637 -13.75546858 21.5843385 -16.20703125 23.921875 C-17.07328125 24.788125 -17.93953125 25.654375 -18.83203125 26.546875 C-19.61578125 27.330625 -20.39953125 28.114375 -21.20703125 28.921875 C-21.76390625 29.52 -22.32078125 30.118125 -22.89453125 30.734375 C-24.20703125 31.921875 -24.20703125 31.921875 -26.20703125 31.921875 C-26.45839844 32.51097656 -26.70976562 33.10007813 -26.96875 33.70703125 C-28.36158526 36.19831702 -29.82788845 37.54487914 -32.01953125 39.359375 C-35.25788106 42.0590438 -38.24265777 44.92952885 -41.20703125 47.921875 C-42.10901497 48.83121544 -42.10901497 48.83121544 -43.02922058 49.75892639 C-44.42338704 51.16474981 -45.81729144 52.57083314 -47.21098328 53.97712708 C-50.42214708 57.21496263 -53.63853084 60.44759095 -56.85522461 63.67993164 C-58.55524204 65.39008281 -60.25347116 67.10201346 -61.94995117 68.81567383 C-64.39948846 71.28933517 -66.85530926 73.75660031 -69.3125 76.22265625 C-70.07394821 76.99442703 -70.83539642 77.76619781 -71.61991882 78.56135559 C-72.32437637 79.2659642 -73.02883392 79.97057281 -73.75463867 80.6965332 C-74.37465256 81.32098831 -74.99466644 81.94544342 -75.63346863 82.58882141 C-77.20703125 83.921875 -77.20703125 83.921875 -79.20703125 83.921875 C-79.43390625 84.458125 -79.66078125 84.994375 -79.89453125 85.546875 C-81.64085181 88.70688363 -83.84731615 91.1895733 -86.20703125 93.921875 C-87.52703125 93.591875 -88.84703125 93.261875 -90.20703125 92.921875 C-90.20703125 89.71302661 -89.86254379 87.60776495 -87.60546875 85.24609375 C-86.21690885 84.08002511 -84.8150244 82.92969565 -83.40234375 81.79296875 C-80.52512982 79.34068144 -78.2207015 76.5528414 -75.84765625 73.62109375 C-74.20703125 71.921875 -74.20703125 71.921875 -72.12890625 70.94140625 C-69.67750589 69.64096826 -69.34792934 68.40608857 -68.20703125 65.921875 C-66.55078125 64 -66.55078125 64 -64.70703125 62.171875 C-63.794375 61.25148438 -63.794375 61.25148438 -62.86328125 60.3125 C-61.20703125 58.921875 -61.20703125 58.921875 -59.20703125 58.921875 C-58.8203125 58.04789063 -58.8203125 58.04789063 -58.42578125 57.15625 C-57.10869108 54.7415847 -55.65614741 53.10447323 -53.70703125 51.171875 C-52.794375 50.25148438 -52.794375 50.25148438 -51.86328125 49.3125 C-50.20703125 47.921875 -50.20703125 47.921875 -48.20703125 47.921875 C-47.8203125 47.04789063 -47.8203125 47.04789063 -47.42578125 46.15625 C-46.10869108 43.7415847 -44.65614741 42.10447323 -42.70703125 40.171875 C-41.794375 39.25148438 -41.794375 39.25148438 -40.86328125 38.3125 C-39.20703125 36.921875 -39.20703125 36.921875 -37.20703125 36.921875 C-36.98015625 36.365 -36.75328125 35.808125 -36.51953125 35.234375 C-34.83153089 32.26027912 -32.74026608 30.20178635 -30.20703125 27.921875 C-29.54703125 27.921875 -28.88703125 27.921875 -28.20703125 27.921875 C-28.20703125 27.261875 -28.20703125 26.601875 -28.20703125 25.921875 C-27.54703125 25.921875 -26.88703125 25.921875 -26.20703125 25.921875 C-25.93890625 25.2825 -25.67078125 24.643125 -25.39453125 23.984375 C-24.20703125 21.921875 -24.20703125 21.921875 -21.20703125 20.921875 C-20.74296875 19.9628125 -20.74296875 19.9628125 -20.26953125 18.984375 C-18.94918907 16.42135782 -17.72556385 16.1811413 -15.20703125 14.921875 C-14.94664062 14.36113281 -14.68625 13.80039062 -14.41796875 13.22265625 C-12.73741804 10.0296099 -10.34444034 7.65153631 -7.83203125 5.109375 C-7.34992188 4.59439453 -6.8678125 4.07941406 -6.37109375 3.54882812 C-2.77764818 -0.09832383 -2.77764818 -0.09832383 0 0 Z " fill="#E0E0E0" transform="translate(517.20703125,7.078125)"/>
<path d="M0 0 C2.24930787 1.82416479 4.13484853 3.57562036 6.11328125 5.66015625 C6.97314888 6.5341935 6.97314888 6.5341935 7.85038757 7.42588806 C9.68324902 9.29331741 11.49826936 11.17698139 13.3125 13.0625 C15.69977777 15.51627753 18.09401244 17.96320314 20.48828125 20.41015625 C21.05982941 20.9980191 21.63137756 21.58588196 22.22024536 22.19155884 C25.82060171 25.87448164 29.51222633 29.34320019 33.53588867 32.56811523 C35.22138496 34.21651205 35.97144094 35.89678628 37 38 C37.99 38.495 37.99 38.495 39 39 C41.52845528 40.26422764 41.76422764 41.52845528 43 44 C44.32520503 44.68268138 45.65812182 45.3507041 47 46 C47.33 46.99 47.66 47.98 48 49 C48.5775 49.28875 49.155 49.5775 49.75 49.875 C54.03165859 52.0158293 57.50402687 55.94846289 60 60 C60.67155862 64.38192001 60.60390052 68.61053787 60 73 C57.75 76 57.75 76 55 78 C54.38125 78.804375 53.7625 79.60875 53.125 80.4375 C50.85830184 83.17087131 48.40251332 85.25402539 45.67578125 87.5078125 C43.49502913 89.44964772 41.81158943 91.71873924 40 94 C39.34 94 38.68 94 38 94 C37.7525 94.57234375 37.505 95.1446875 37.25 95.734375 C35.80683801 98.35010611 34.11783778 100.14773456 32 102.25 C30.948125 103.30960938 30.948125 103.30960938 29.875 104.390625 C28 106 28 106 26 106 C25.61908203 106.88945312 25.61908203 106.88945312 25.23046875 107.796875 C23.86373626 110.24397699 22.48257018 111.49347954 20.3125 113.25 C17.39562714 115.70797966 14.84065281 118.21454123 12.375 121.125 C5.0330697 129.62444183 5.0330697 129.62444183 0.80078125 130.40625 C-3.88275265 130.59204308 -7.32842255 130.13163959 -11 127 C-12.625 124.5 -12.625 124.5 -14 122 C-15.58245275 120.24850835 -15.58245275 120.24850835 -17 119 C-15.515 118.505 -15.515 118.505 -14 118 C-12.09765625 119.3984375 -12.09765625 119.3984375 -10.0625 121.375 C-6.58437209 124.81315795 -6.58437209 124.81315795 -2 126 C-0.23601742 125.10243137 -0.23601742 125.10243137 1.3125 123.5625 C1.91320312 123.01207031 2.51390625 122.46164062 3.1328125 121.89453125 C5.68799383 119.30193095 8.03028236 116.55936588 10.32421875 113.734375 C12 112 12 112 14.14453125 110.953125 C16.35887094 110.08899804 16.35887094 110.08899804 17 107 C17.66 107 18.32 107 19 107 C19.268125 106.360625 19.53625 105.72125 19.8125 105.0625 C21 103 21 103 24 102 C24.495 100.515 24.495 100.515 25 99 C25.66 99 26.32 99 27 99 C27 98.34 27 97.68 27 97 C29.375 94.375 29.375 94.375 32 92 C32.66 92 33.32 92 34 92 C34 91.34 34 90.68 34 90 C35.22265625 88.80078125 35.22265625 88.80078125 37.0625 87.3125 C41.55426761 83.47171321 45.82832528 79.43270629 50.0625 75.3125 C50.7541626 74.65870361 51.4458252 74.00490723 52.15844727 73.33129883 C52.79838623 72.70247803 53.4383252 72.07365723 54.09765625 71.42578125 C54.68039307 70.86286377 55.26312988 70.29994629 55.86352539 69.7199707 C57.21728582 68.07590739 57.21728582 68.07590739 56.76625061 66.10801697 C55.85989994 63.61457349 54.76415154 62.40798252 52.87646484 60.55175781 C52.21842865 59.8971759 51.56039246 59.24259399 50.88241577 58.56817627 C49.80753403 57.52122589 49.80753403 57.52122589 48.7109375 56.453125 C47.97428864 55.72309265 47.23763977 54.9930603 46.47866821 54.24090576 C44.117758 51.90341226 41.74696672 49.57626872 39.375 47.25 C37.02614013 44.9363851 34.67948419 42.62059835 32.33560181 40.30194092 C30.87742367 38.86051708 29.41616125 37.42220407 27.95126343 35.98760986 C23.95085618 32.04487076 20.16821199 27.99911663 16.53994751 23.71014404 C14.8591264 21.76188283 14.8591264 21.76188283 12 19.5 C8.82750665 16.85625554 6.27363921 14.01069093 3.61328125 10.8671875 C3.08089844 10.25101562 2.54851563 9.63484375 2 9 C1.52304687 8.42894531 1.04609375 7.85789062 0.5546875 7.26953125 C-1.46726379 5.61844037 -2.61455709 5.68596182 -5.1875 5.8125 C-6.445625 5.874375 -7.70375 5.93625 -9 6 C-9 5.01 -9 4.02 -9 3 C-8.34 3 -7.68 3 -7 3 C-7 2.34 -7 1.68 -7 1 C-4.31431472 -0.34284264 -2.99514089 -0.45220183 0 0 Z " fill="#DCDCDC" transform="translate(585,253)"/>
<path d="M0 0 C1.0625 1.9375 1.0625 1.9375 2 4 C2.66 4.33 3.32 4.66 4 5 C6.52845528 6.26422764 6.76422764 7.52845528 8 10 C8.60328125 10.2784375 9.2065625 10.556875 9.828125 10.84375 C12.56099931 12.2986615 13.88380966 14.04364691 15.75 16.5 C16.36359375 17.2940625 16.9771875 18.088125 17.609375 18.90625 C19 21 19 21 19 23 C15.56291207 22.40555907 13.75331426 21.20565816 11.1875 18.875 C10.14722656 17.93914062 10.14722656 17.93914062 9.0859375 16.984375 C6.52678266 14.5498232 4.10614261 12.00332408 1.73828125 9.3828125 C-0.53049769 7.57798611 -2.11257165 7.15220553 -5 7 C-6.95260198 8.00301777 -6.95260198 8.00301777 -8.625 9.75 C-9.30433594 10.39195313 -9.98367188 11.03390625 -10.68359375 11.6953125 C-11.44800781 12.45585938 -12.21242188 13.21640625 -13 14 C-13.91910156 14.90492187 -14.83820313 15.80984375 -15.78515625 16.7421875 C-18.54419674 19.47440527 -21.272742 22.23605243 -24 25 C-25.299375 26.28390625 -25.299375 26.28390625 -26.625 27.59375 C-28.63002081 29.62515266 -30.48359468 31.68757478 -32.3125 33.875 C-35.34949443 37.38838572 -38.61757798 40.40662695 -42.15234375 43.41015625 C-44.56439486 45.48564209 -46.78090911 47.72093368 -49 50 C-51.60966048 52.67179526 -53.88855331 54.92570221 -57 57 C-56.07218194 49.57745555 -52.47416235 43.94009773 -47 39 C-45.7625 37.7315625 -45.7625 37.7315625 -44.5 36.4375 C-42.10821597 34.10551057 -39.60605661 32.08484529 -37 30 C-35.31126121 28.35570171 -33.64694485 26.68615782 -32 25 C-31.46375 24.4740625 -30.9275 23.948125 -30.375 23.40625 C-27.27002661 20.35672256 -24.32146438 17.25240434 -21.5 13.9375 C-18.33519491 10.27261284 -14.9890717 6.77866736 -11 4 C-10.34 4 -9.68 4 -9 4 C-8.71125 3.360625 -8.4225 2.72125 -8.125 2.0625 C-6.06092028 -1.72164616 -3.7774462 -1.22767001 0 0 Z " fill="#D4D4D4" transform="translate(407,111)"/>
<path d="M0 0 C4.85717594 4.0381691 9.39525812 8.28065411 13.81640625 12.7890625 C15.0877563 14.07304969 16.35924479 15.3568998 17.63085938 16.640625 C19.60312139 18.63772782 21.57372505 20.63641474 23.54174805 22.63769531 C25.46217975 24.58844334 27.38887976 26.53282803 29.31640625 28.4765625 C29.89781876 29.07143463 30.47923126 29.66630676 31.07826233 30.27920532 C34.48517783 33.70676655 37.79035846 36.59693582 42 39 C44.79561167 38.87754191 44.79561167 38.87754191 47 38 C46.5206753 42.31392226 45.2542015 44.16569547 42 47 C38.97022571 45.64768813 36.91527387 44.14519457 34.609375 41.76953125 C33.98562988 41.1343457 33.36188477 40.49916016 32.71923828 39.84472656 C32.06938965 39.1740918 31.41954102 38.50345703 30.75 37.8125 C26.10833264 33.07995156 21.4913227 28.46054555 16.3203125 24.296875 C15 23 15 23 14 20 C13.4225 19.71125 12.845 19.4225 12.25 19.125 C8.56086078 17.28043039 5.74324107 14.5302022 3.9375 10.8125 C3.1413346 8.8295017 3.1413346 8.8295017 1.0625 8.0625 C-1.71944543 6.6293766 -2.56938502 4.71816847 -4 2 C-3.01 2 -2.02 2 -1 2 C-0.67 1.34 -0.34 0.68 0 0 Z " fill="#D1D1D1" transform="translate(362,305)"/>
<path d="M0 0 C0.99 0.99 1.98 1.98 3 3 C1.38405168 5.04119788 -0.2856382 7.04072937 -2 9 C-2.66 9 -3.32 9 -4 9 C-4.26554687 9.58265625 -4.53109375 10.1653125 -4.8046875 10.765625 C-6.03302996 13.06174228 -7.40314939 14.80356018 -9.125 16.75 C-9.93324219 17.67039063 -9.93324219 17.67039063 -10.7578125 18.609375 C-11.16773438 19.06828125 -11.57765625 19.5271875 -12 20 C-11.566875 20.40992188 -11.13375 20.81984375 -10.6875 21.2421875 C-10.130625 21.78101563 -9.57375 22.31984375 -9 22.875 C-8.443125 23.40867188 -7.88625 23.94234375 -7.3125 24.4921875 C-6 26 -6 26 -6 28 C-5.01 28.33 -4.02 28.66 -3 29 C-3 29.66 -3 30.32 -3 31 C-2.401875 31.268125 -1.80375 31.53625 -1.1875 31.8125 C1.04237457 33.02300334 2.45490692 33.991379 4 36 C4 37.32 4 38.64 4 40 C4.66 40.33 5.32 40.66 6 41 C5.67 41.66 5.34 42.32 5 43 C0.12262664 42.58193943 -1.8149909 40.5933436 -5 37 C-6.33333333 35.33333333 -7.66666667 33.66666667 -9 32 C-11.4761159 29.3969038 -13.84229152 27.11469708 -16.75 25 C-19 23 -19 23 -20.125 20.5625 C-20 18 -20 18 -17.875 15.5 C-16.92625 14.675 -15.9775 13.85 -15 13 C-14.175 12.175 -13.35 11.35 -12.5 10.5 C-11.675 9.675 -10.85 8.85 -10 8 C-9.175 7.13375 -8.35 6.2675 -7.5 5.375 C-5.12597023 3.11967172 -2.86707851 1.55641405 0 0 Z " fill="#EEEEEE" transform="translate(302,211)"/>
<path d="M0 0 C5.78958683 4.78723454 11.13487711 9.94865752 16.4453125 15.26000977 C17.88785844 16.70033868 19.33826733 18.13243926 20.7890625 19.56445312 C22.15804687 20.93053711 22.15804687 20.93053711 23.5546875 22.32421875 C24.38468262 23.15010498 25.21467773 23.97599121 26.06982422 24.8269043 C28 27 28 27 29 30 C26.26629093 35.14706161 22.58603593 38.31540775 18 41.8125 C17.38382813 42.30169922 16.76765625 42.79089844 16.1328125 43.29492188 C13.08255321 45.66116379 10.84309831 47.23546206 7 48 C7.33 47.01 7.66 46.02 8 45 C8.66 45 9.32 45 10 45 C10.226875 44.46375 10.45375 43.9275 10.6875 43.375 C13.05659204 39.08807155 15.92942181 35.7137188 20 33 C20.97470184 31.12203098 20.97470184 31.12203098 21 29 C20.00927969 27.17208504 20.00927969 27.17208504 18.3125 25.5 C17.67441406 24.81679687 17.03632812 24.13359375 16.37890625 23.4296875 C15.59386719 22.62789062 14.80882812 21.82609375 14 21 C13.51644043 20.50274414 13.03288086 20.00548828 12.53466797 19.49316406 C6.18533206 12.75531029 6.18533206 12.75531029 -1 7 C-1 5 -1 5 1 3 C0.67 2.01 0.34 1.02 0 0 Z " fill="#CDCDCD" transform="translate(579,69)"/>
<path d="M0 0 C0.66 0.33 1.32 0.66 2 1 C0.37660195 2.70884005 -1.29319053 4.37446717 -3 6 C-3.66 6 -4.32 6 -5 6 C-5.38091797 6.88945312 -5.38091797 6.88945312 -5.76953125 7.796875 C-7.13626374 10.24397699 -8.51742982 11.49347954 -10.6875 13.25 C-13.60437286 15.70797966 -16.15934719 18.21454123 -18.625 21.125 C-25.9669303 29.62444183 -25.9669303 29.62444183 -30.19921875 30.40625 C-34.88275265 30.59204308 -38.32842255 30.13163959 -42 27 C-43.625 24.5 -43.625 24.5 -45 22 C-46.58245275 20.24850835 -46.58245275 20.24850835 -48 19 C-47.01 18.67 -46.02 18.34 -45 18 C-43.09765625 19.3984375 -43.09765625 19.3984375 -41.0625 21.375 C-37.58437209 24.81315795 -37.58437209 24.81315795 -33 26 C-31.23601742 25.10243137 -31.23601742 25.10243137 -29.6875 23.5625 C-29.08679688 23.01207031 -28.48609375 22.46164062 -27.8671875 21.89453125 C-25.31200617 19.30193095 -22.96971764 16.55936588 -20.67578125 13.734375 C-19 12 -19 12 -16.85546875 10.953125 C-14.64112906 10.08899804 -14.64112906 10.08899804 -14 7 C-13.34 7 -12.68 7 -12 7 C-11.7525 6.38125 -11.505 5.7625 -11.25 5.125 C-9.79371361 2.64931313 -8.62187494 2.04874998 -6 1 C-5.505 1.99 -5.505 1.99 -5 3 C-2.3094472 1.77992056 -2.3094472 1.77992056 0 0 Z " fill="#CBCBCB" transform="translate(616,353)"/>
<path d="M0 0 C2.24930787 1.82416479 4.13484853 3.57562036 6.11328125 5.66015625 C6.97314888 6.5341935 6.97314888 6.5341935 7.85038757 7.42588806 C9.68324902 9.29331741 11.49826936 11.17698139 13.3125 13.0625 C15.69977711 15.51627686 18.09368764 17.96352162 20.48828125 20.41015625 C21.05837921 20.99511871 21.62847717 21.58008118 22.21585083 22.18276978 C26.29259054 26.34486443 30.49319684 30.30142092 35 34 C33.68 34.66 32.36 35.32 31 36 C32.32 37.32 33.64 38.64 35 40 C34.505 40.99 34.505 40.99 34 42 C27.95916314 36.04843659 22.00403175 30.1255156 16.5078125 23.66015625 C14.84955973 21.75749002 14.84955973 21.75749002 12 19.5 C8.82750665 16.85625554 6.27363921 14.01069093 3.61328125 10.8671875 C3.08089844 10.25101562 2.54851563 9.63484375 2 9 C1.28457031 8.14341797 1.28457031 8.14341797 0.5546875 7.26953125 C-1.46726379 5.61844037 -2.61455709 5.68596182 -5.1875 5.8125 C-6.445625 5.874375 -7.70375 5.93625 -9 6 C-9 5.01 -9 4.02 -9 3 C-8.34 3 -7.68 3 -7 3 C-7 2.34 -7 1.68 -7 1 C-4.31431472 -0.34284264 -2.99514089 -0.45220183 0 0 Z " fill="#D3D3D3" transform="translate(585,253)"/>
<path d="M0 0 C6.26893013 5.19376092 12.04224377 10.82410164 17.8125 16.5625 C18.77535729 17.50459137 19.7382477 18.44664888 20.70117188 19.38867188 C21.61060547 20.29294922 22.52003906 21.19722656 23.45703125 22.12890625 C24.28178955 22.94431885 25.10654785 23.75973145 25.95629883 24.59985352 C28.00942529 27.01106917 29.02443811 29.00878687 30 32 C28.3125 32.75 28.3125 32.75 26 33 C21.82567196 30.40514743 18.86051917 26.65271721 15.6953125 22.953125 C13.5768906 20.51254677 11.31483967 18.25392284 9 16 C7.33333333 14.33333333 5.66666667 12.66666667 4 11 C2.6696875 9.700625 2.6696875 9.700625 1.3125 8.375 C-1 6 -1 6 -3 3 C-2.01 2.67 -1.02 2.34 0 2 C0 1.34 0 0.68 0 0 Z " fill="#DBDBDB" transform="translate(551,41)"/>
<path d="M0 0 C2.69082872 0.17635452 5.32851446 0.61835921 8 1 C4.49264397 5.18231114 0.95282564 9.22684826 -3 13 C-3.77859375 13.75023437 -4.5571875 14.50046875 -5.359375 15.2734375 C-6.23078125 16.09070313 -7.1021875 16.90796875 -8 17.75 C-9.2375 18.91789062 -9.2375 18.91789062 -10.5 20.109375 C-14.01339955 22.76638341 -16.68451184 23 -21 23 C-19.71480435 20.13302508 -18.42870746 18.02392288 -16 16 C-15.34 16 -14.68 16 -14 16 C-13.7421875 15.41734375 -13.484375 14.8346875 -13.21875 14.234375 C-11.90165983 11.8197097 -10.44911616 10.18259823 -8.5 8.25 C-7.8915625 7.63640625 -7.283125 7.0228125 -6.65625 6.390625 C-5 5 -5 5 -3 5 C-2.690625 4.360625 -2.38125 3.72125 -2.0625 3.0625 C-1 1 -1 1 0 0 Z " fill="#DDDDDD" transform="translate(483,39)"/>
<path d="M0 0 C5.55909675 4.65722201 10.82422685 9.54621749 16 14.625 C16.78761719 15.37523437 17.57523437 16.12546875 18.38671875 16.8984375 C19.12535156 17.62546875 19.86398437 18.3525 20.625 19.1015625 C21.29789062 19.75463379 21.97078125 20.40770508 22.6640625 21.08056641 C24 23 24 23 23.7109375 25.24365234 C23.47632813 25.82324707 23.24171875 26.4028418 23 27 C18.10832797 26.58071383 16.23375968 24.55713565 13 21 C12.13375 20.13375 11.2675 19.2675 10.375 18.375 C9.59125 17.59125 8.8075 16.8075 8 16 C7.1028125 15.1646875 7.1028125 15.1646875 6.1875 14.3125 C5 13 5 13 5 11 C4.360625 10.731875 3.72125 10.46375 3.0625 10.1875 C1 9 1 9 0 6 C0.99 6.33 1.98 6.66 3 7 C3 6.34 3 5.68 3 5 C2.505 4.505 2.01 4.01 1.5 3.5 C1.005 3.005 0.51 2.51 0 2 C0 1.34 0 0.68 0 0 Z " fill="#DDDDDD" transform="translate(338,281)"/>
<path d="M0 0 C0.87398437 0.33451172 0.87398437 0.33451172 1.765625 0.67578125 C-0.17054521 7.37790891 -0.17054521 7.37790891 -3.234375 9.67578125 C-3.894375 9.67578125 -4.554375 9.67578125 -5.234375 9.67578125 C-5.48316406 10.26746094 -5.73195313 10.85914063 -5.98828125 11.46875 C-7.41343428 13.99292387 -8.86213533 15.2549012 -11.171875 16.98828125 C-12.20634766 17.78685547 -12.20634766 17.78685547 -13.26171875 18.6015625 C-13.91269531 18.95605469 -14.56367187 19.31054688 -15.234375 19.67578125 C-16.224375 19.34578125 -17.214375 19.01578125 -18.234375 18.67578125 C-18.564375 17.68578125 -18.894375 16.69578125 -19.234375 15.67578125 C-18.244375 15.34578125 -17.254375 15.01578125 -16.234375 14.67578125 C-16.234375 14.01578125 -16.234375 13.35578125 -16.234375 12.67578125 C-13.859375 10.05078125 -13.859375 10.05078125 -11.234375 7.67578125 C-10.574375 7.67578125 -9.914375 7.67578125 -9.234375 7.67578125 C-9.234375 7.01578125 -9.234375 6.35578125 -9.234375 5.67578125 C-7.84375 4.1328125 -7.84375 4.1328125 -5.984375 2.48828125 C-5.38109375 1.93785156 -4.7778125 1.38742187 -4.15625 0.8203125 C-2.234375 -0.32421875 -2.234375 -0.32421875 0 0 Z " fill="#D9D9D9" transform="translate(628.234375,337.32421875)"/>
<path d="M0 0 C0.66 0 1.32 0 2 0 C0.43726255 6.81298695 -1.51232517 12.3836273 -7 17 C-7.66 17 -8.32 17 -9 17 C-9.33 16.34 -9.66 15.68 -10 15 C-10.79664063 15.83144531 -11.59328125 16.66289062 -12.4140625 17.51953125 C-13.48396403 18.61758808 -14.5542997 19.71522203 -15.625 20.8125 C-16.40810547 21.63331055 -16.40810547 21.63331055 -17.20703125 22.47070312 C-20.53327778 25.85854682 -23.56647033 28.10276883 -28 30 C-28 28 -28 28 -25.8125 25.6875 C-24.884375 24.800625 -23.95625 23.91375 -23 23 C-21.7625 21.7625 -21.7625 21.7625 -20.5 20.5 C-18 18 -15.5 15.5 -13 13 C-12.175 12.154375 -11.35 11.30875 -10.5 10.4375 C-8 8 -8 8 -5.375 5.9375 C-2.94328702 4.11236392 -2.94328702 4.11236392 -1.3125 1.75 C-0.879375 1.1725 -0.44625 0.595 0 0 Z " fill="#E0E0E0" transform="translate(351,159)"/>
<path d="M0 0 C0.45890625 0.39832031 0.9178125 0.79664062 1.390625 1.20703125 C2.31101562 2.00173828 2.31101562 2.00173828 3.25 2.8125 C4.20519531 3.64007813 4.20519531 3.64007813 5.1796875 4.484375 C7.0343167 6.08619754 7.0343167 6.08619754 9.375 7.5625 C11.56331988 9.49832143 11.69301052 11.16034732 12 14 C10 15 10 15 7.8125 14.5625 C3.62040523 12.23355846 0.98381571 8.69752379 -2 5 C-1.01 4.67 -0.02 4.34 1 4 C0.67 2.68 0.34 1.36 0 0 Z " fill="#E2E2E2" transform="translate(540,30)"/>
<path d="M0 0 C2.26823204 2.13480663 4.14594549 4.50244204 6 7 C5.01 7.99 4.02 8.98 3 10 C2.505 9.34 2.01 8.68 1.5 8 C-2.10340212 5.1172783 -4.46985042 5.69799003 -9 6 C-9 5.01 -9 4.02 -9 3 C-8.34 3 -7.68 3 -7 3 C-7 2.34 -7 1.68 -7 1 C-4.26760135 -0.36619933 -3.04371875 -0.55340341 0 0 Z " fill="#CDCDCD" transform="translate(585,253)"/>
<path d="M0 0 C1.5625 1.1875 1.5625 1.1875 3 3 C3 5.5 3 5.5 2 8 C-1.31964326 10.60188256 -2.69316041 11 -7 11 C-7.33 10.01 -7.66 9.02 -8 8 C-7.01 7.67 -6.02 7.34 -5 7 C-5 6.34 -5 5.68 -5 5 C-3.37446717 3.29319053 -1.70884005 1.62339805 0 0 Z " fill="#DFDFDF" transform="translate(617,345)"/>
<path d="M0 0 C0.33 0.99 0.66 1.98 1 3 C-2.63 6.63 -6.26 10.26 -10 14 C-10.33 12.68 -10.66 11.36 -11 10 C-10.01 9.67 -9.02 9.34 -8 9 C-7.67 8.01 -7.34 7.02 -7 6 C-6.34 6 -5.68 6 -5 6 C-4.731875 5.38125 -4.46375 4.7625 -4.1875 4.125 C-3 2 -3 2 0 0 Z " fill="#D1D1D1" transform="translate(609,354)"/>
<path d="M0 0 C0.33 1.32 0.66 2.64 1 4 C-1.08984375 6.578125 -1.08984375 6.578125 -3.9375 9.25 C-4.87464844 10.14203125 -5.81179688 11.0340625 -6.77734375 11.953125 C-7.51082031 12.62859375 -8.24429688 13.3040625 -9 14 C-9.99 13.67 -10.98 13.34 -12 13 C-8.04 8.71 -4.08 4.42 0 0 Z " fill="#C2C2C2" transform="translate(597,365)"/>
<path d="M0 0 C3.34998521 1.11666174 3.79340222 1.74694925 5.6875 4.5625 C6.34298828 5.52349609 6.34298828 5.52349609 7.01171875 6.50390625 C7.33785156 6.99761719 7.66398438 7.49132812 8 8 C6.68 7.67 5.36 7.34 4 7 C4.66 8.65 5.32 10.3 6 12 C1.61899946 10.53966649 -1.04399551 7.68438886 -3.3125 3.6875 C-3.539375 3.130625 -3.76625 2.57375 -4 2 C-3.34 2 -2.68 2 -2 2 C-1.67 2.66 -1.34 3.32 -1 4 C-0.34 3.67 0.32 3.34 1 3 C0.67 2.01 0.34 1.02 0 0 Z " fill="#DFDFDF" transform="translate(526,16)"/>
<path d="M0 0 C1.32 0 2.64 0 4 0 C5.61949011 2.57213134 6.04408751 3.67669159 5.625 6.75 C5.41875 7.4925 5.2125 8.235 5 9 C3.02 7.35 1.04 5.7 -1 4 C-0.67 2.68 -0.34 1.36 0 0 Z " fill="#E6E6E6" transform="translate(637,308)"/>
<path d="M0 0 C2.94851556 2.34488245 3.93035506 3.42333987 4.390625 7.234375 C4.34421875 8.39453125 4.2978125 9.5546875 4.25 10.75 C4.21390625 11.92046875 4.1778125 13.0909375 4.140625 14.296875 C4.09421875 15.18890625 4.0478125 16.0809375 4 17 C3.67 17 3.34 17 3 17 C0.88838269 5.47835991 0.88838269 5.47835991 0 0 Z " fill="#B6B6B6" transform="translate(641,309)"/>
<path d="M0 0 C0 3 0 3 -1.75 5.04296875 C-2.4925 5.75066406 -3.235 6.45835937 -4 7.1875 C-4.7425 7.90292969 -5.485 8.61835938 -6.25 9.35546875 C-7.11625 10.16951172 -7.11625 10.16951172 -8 11 C-8.66 10.67 -9.32 10.34 -10 10 C-6.66666667 6.66666667 -3.33333333 3.33333333 0 0 Z " fill="#E2E2E2" transform="translate(297,214)"/>
<path d="M0 0 C-0.33 1.65 -0.66 3.3 -1 5 C-2.32 5.33 -3.64 5.66 -5 6 C-5 4.35 -5 2.7 -5 1 C-2 0 -2 0 0 0 Z " fill="#D5D5D5" transform="translate(409,343)"/>
<path d="M0 0 C0.66 0.33 1.32 0.66 2 1 C-0.64 3.64 -3.28 6.28 -6 9 C-6.66 8.67 -7.32 8.34 -8 8 C-3.375 2.25 -3.375 2.25 0 0 Z " fill="#E0E0E0" transform="translate(321,190)"/>
<path d="M0 0 C0 3 0 3 -1.3125 4.60546875 C-1.869375 5.12753906 -2.42625 5.64960938 -3 6.1875 C-3.556875 6.71730469 -4.11375 7.24710938 -4.6875 7.79296875 C-5.120625 8.19128906 -5.55375 8.58960938 -6 9 C-6.66 8.67 -7.32 8.34 -8 8 C-5.33333333 5.33333333 -2.66666667 2.66666667 0 0 Z " fill="#DEDEDE" transform="translate(311,200)"/>
<path d="M0 0 C2 1 4 2 6 3 C6 4.32 6 5.64 6 7 C3.00675737 5.9024777 2.15389099 5.32317108 0.75 2.375 C0.5025 1.59125 0.255 0.8075 0 0 Z " fill="#F8F8F8" transform="translate(528,21)"/>
<path d="M0 0 C0.99 0.99 1.98 1.98 3 3 C2.67 3.99 2.34 4.98 2 6 C1.01 5.67 0.02 5.34 -1 5 C-1.33 4.01 -1.66 3.02 -2 2 C-1.34 1.34 -0.68 0.68 0 0 Z " fill="#E7E7E7" transform="translate(617,345)"/>
<path d="" fill="#000000" transform="translate(0,0)"/>
<path d="" fill="#000000" transform="translate(0,0)"/>
<path d="" fill="#FFFFFF" transform="translate(0,0)"/>
<path d="" fill="#FFFFFF" transform="translate(0,0)"/>
<path d="" fill="#FFFFFF" transform="translate(0,0)"/>
<path d="" fill="#FFFFFF" transform="translate(0,0)"/>
<path d="" fill="#FFFFFF" transform="translate(0,0)"/>
<path d="" fill="#FFFFFF" transform="translate(0,0)"/>
<path d="" fill="#FFFFFF" transform="translate(0,0)"/>
<path d="" fill="#FFFFFF" transform="translate(0,0)"/>
<path d="" fill="#FFFFFF" transform="translate(0,0)"/>
<path d="" fill="#FFFFFF" transform="translate(0,0)"/>
<path d="" fill="#FFFFFF" transform="translate(0,0)"/>
<path d="" fill="#FFFFFF" transform="translate(0,0)"/>
<path d="" fill="#FFFFFF" transform="translate(0,0)"/>
<path d="" fill="#FFFFFF" transform="translate(0,0)"/>
<path d="" fill="#FFFFFF" transform="translate(0,0)"/>
<path d="" fill="#FFFFFF" transform="translate(0,0)"/>
<path d="" fill="#FFFFFF" transform="translate(0,0)"/>
<path d="" fill="#FFFFFF" transform="translate(0,0)"/>
<path d="" fill="#FFFFFF" transform="translate(0,0)"/>
<path d="" fill="#FFFFFF" transform="translate(0,0)"/>
<path d="" fill="#FFFFFF" transform="translate(0,0)"/>
<path d="" fill="#FFFFFF" transform="translate(0,0)"/>
<path d="" fill="#FFFFFF" transform="translate(0,0)"/>
<path d="" fill="#FFFFFF" transform="translate(0,0)"/>
<path d="" fill="#FFFFFF" transform="translate(0,0)"/>
<path d="" fill="#FFFFFF" transform="translate(0,0)"/>
<path d="" fill="#FFFFFF" transform="translate(0,0)"/>
<path d="" fill="#FFFFFF" transform="translate(0,0)"/>
<path d="" fill="#FFFFFF" transform="translate(0,0)"/>
<path d="" fill="#FFFFFF" transform="translate(0,0)"/>
<path d="" fill="#FFFFFF" transform="translate(0,0)"/>
<path d="" fill="#FFFFFF" transform="translate(0,0)"/>
<path d="" fill="#FFFFFF" transform="translate(0,0)"/>
<path d="" fill="#FFFFFF" transform="translate(0,0)"/>
<path d="" fill="#FFFFFF" transform="translate(0,0)"/>
<path d="" fill="#FFFFFF" transform="translate(0,0)"/>
<path d="" fill="#FFFFFF" transform="translate(0,0)"/>
<path d="" fill="#FFFFFF" transform="translate(0,0)"/>
<path d="" fill="#FFFFFF" transform="translate(0,0)"/>
<path d="" fill="#FFFFFF" transform="translate(0,0)"/>
<path d="" fill="#FFFFFF" transform="translate(0,0)"/>
<path d="" fill="#FFFFFF" transform="translate(0,0)"/>
<path d="" fill="#FFFFFF" transform="translate(0,0)"/>
<path d="" fill="#FFFFFF" transform="translate(0,0)"/>
<path d="" fill="#FFFFFF" transform="translate(0,0)"/>
<path d="" fill="#FFFFFF" transform="translate(0,0)"/>
<path d="" fill="#FFFFFF" transform="translate(0,0)"/>
<path d="" fill="#FFFFFF" transform="translate(0,0)"/>
<path d="" fill="#FFFFFF" transform="translate(0,0)"/>
<path d="" fill="#FFFFFF" transform="translate(0,0)"/>
<path d="" fill="#FFFFFF" transform="translate(0,0)"/>
<path d="" fill="#FFFFFF" transform="translate(0,0)"/>
<path d="" fill="#FFFFFF" transform="translate(0,0)"/>
<path d="" fill="#FFFFFF" transform="translate(0,0)"/>
<path d="" fill="#FFFFFF" transform="translate(0,0)"/>
<path d="" fill="#FFFFFF" transform="translate(0,0)"/>
<path d="" fill="#FFFFFF" transform="translate(0,0)"/>
<path d="" fill="#FFFFFF" transform="translate(0,0)"/>
<path d="" fill="#FFFFFF" transform="translate(0,0)"/>
<path d="" fill="#FFFFFF" transform="translate(0,0)"/>
<path d="" fill="#FFFFFF" transform="translate(0,0)"/>
<path d="" fill="#FFFFFF" transform="translate(0,0)"/>
<path d="" fill="#FFFFFF" transform="translate(0,0)"/>
<path d="" fill="#FFFFFF" transform="translate(0,0)"/>
<path d="" fill="#FFFFFF" transform="translate(0,0)"/>
<path d="" fill="#FFFFFF" transform="translate(0,0)"/>
<path d="" fill="#FFFFFF" transform="translate(0,0)"/>
<path d="" fill="#FFFFFF" transform="translate(0,0)"/>
<path d="" fill="#FFFFFF" transform="translate(0,0)"/>
<path d="" fill="#FFFFFF" transform="translate(0,0)"/>
<path d="" fill="#FFFFFF" transform="translate(0,0)"/>
<path d="" fill="#FFFFFF" transform="translate(0,0)"/>
<path d="" fill="#FFFFFF" transform="translate(0,0)"/>
<path d="" fill="#FFFFFF" transform="translate(0,0)"/>
<path d="" fill="#FFFFFF" transform="translate(0,0)"/>
<path d="" fill="#FFFFFF" transform="translate(0,0)"/>
<path d="" fill="#FFFFFF" transform="translate(0,0)"/>
<path d="" fill="#FFFFFF" transform="translate(0,0)"/>
<path d="" fill="#FFFFFF" transform="translate(0,0)"/>
<path d="" fill="#FFFFFF" transform="translate(0,0)"/>
<path d="" fill="#FFFFFF" transform="translate(0,0)"/>
<path d="" fill="#FFFFFF" transform="translate(0,0)"/>
</svg>
